<svg id="Capa_1" enable-background="new 0 0 512 512" height="512" viewBox="0 0 512 512" width="512" xmlns="http://www.w3.org/2000/svg"><g><g><path d="m243.328 15.488c53.279 0 99.556 30.532 122.255 75.021 3.304 6.475 10.087 10.412 17.345 9.984 69.25-4.081 128.73 51.145 129.071 121.271.328 67.465-56.261 122.661-123.727 122.661h-279.877c-59.146 0-108.165-47.399-108.395-106.545-.211-54.331 40.676-100.684 95.162-106.719 7.501-.831 13.626-6.28 15.556-13.575 15.526-58.702 69.095-102.098 132.61-102.098z" fill="#b1e4f9"/><g><path d="m387.421 100.31c-10.065.223-19.28-5.393-24.177-14.188-23.441-42.096-68.406-70.634-119.915-70.634-45.627 0-86.095 22.413-111.041 56.787 22.58-16.351 50.311-26.005 80.259-26.005 50.123 0 94.05 27.023 117.977 67.266 6.414 10.788 18.026 17.359 30.575 17.539 65.543.941 120.12 54.709 120.12 122.077 0 25.804-8.071 49.746-21.79 69.482 31.738-22.063 52.571-58.768 52.571-100.264 0-68.89-57.071-123.559-124.579-122.06z" fill="#90d8f9"/></g></g><path d="m286.994 478.688c60.753-35.076 98.178-99.898 98.178-170.05v-34.823c0-.598-.319-1.15-.837-1.449l-127.499-73.612c-.518-.299-1.156-.299-1.674 0l-127.499 73.612c-.518.299-.837.851-.837 1.449v34.823c0 70.151 37.425 134.974 98.178 170.05l30.765 17.762c.142.082.317.082.459 0z" fill="#365e7d"/><path d="m256.837 198.755c-.518-.299-1.156-.299-1.674 0l-27.872 16.092 97.948 56.551c19.179 11.073 30.994 31.537 30.994 53.684 0 70.151-37.425 134.974-98.178 170.05l-2.286 1.319c.142.082.317.082.46 0l30.765-17.762c60.753-35.075 98.178-99.898 98.178-170.049v-34.823c0-.598-.319-1.15-.837-1.449z" fill="#2b4d66"/><path d="m243.034 447.463c-49.438-28.543-80.15-81.737-80.15-138.824v-14.007c0-.598.319-1.15.837-1.449l91.443-52.794c.518-.299 1.156-.299 1.674 0l91.443 52.794c.518.299.837.851.837 1.449v14.007c0 57.087-30.711 110.281-80.15 138.824l-12.13 7.003c-.518.299-1.156.299-1.674 0z" fill="#b3e59f"/><path d="m256.837 240.388c-.518-.299-1.156-.299-1.674 0l-32.001 18.476 76.93 44.416c8.024 4.633 12.967 13.194 12.967 22.459 0 49.653-23.243 96.354-61.826 126.458l3.93 2.269c.518.299 1.156.299 1.674 0l12.13-7.003c49.597-28.634 80.15-81.553 80.15-138.822v-14.009c0-.598-.319-1.15-.837-1.449z" fill="#95d6a4"/><g><path d="m276.03 344.831h-40.06c-4.267 0-7.726-3.459-7.726-7.726s3.459-7.726 7.726-7.726h40.059c4.268 0 7.726 3.459 7.726 7.726s-3.458 7.726-7.725 7.726z" fill="#95d6a4"/></g></g></svg>